<svg
                    class="section_title w-[366px] h-[38px]  md:w-[240px] md:h-6 aspect-[12587/953] sm:max-h-6"
                    width="524" height="41" viewBox="0 0 524 41" fill="none" xmlns="http://www.w3.org/2000/svg">
                    <path
                        d="M100.336 6.77031C96.8761 2.00031 90.6161 0.55031 84.1261 0.90031C77.5461 1.25031 72.9561 2.65031 71.7861 3.09031C71.0561 3.37031 71.1461 3.99028 71.1461 4.37028C71.1161 5.63028 71.0261 8.89031 71.0261 10.2103C71.0261 10.7903 71.7461 11.0703 72.3461 10.8503C74.7461 10.0003 79.1761 8.64033 82.7361 8.36033C86.5761 8.05033 91.7961 8.36033 93.2461 10.5403C93.9361 11.5803 93.9661 13.1603 94.0461 14.7903C91.6461 14.5703 88.0961 14.2703 84.5661 14.4603C81.8161 14.6103 76.5561 14.8403 73.4561 16.4903C70.9361 17.8303 69.4561 19.0503 68.6661 21.3203C68.0361 23.1503 67.8561 25.3403 68.0661 27.1403C68.5261 31.2203 69.9461 33.2603 71.8661 34.6803C74.8961 36.9203 78.7061 38.1003 86.5961 37.9303C97.0961 37.7003 99.8561 34.3003 101.256 31.9003C103.626 27.8003 103.216 21.3203 103.146 17.3403C103.116 15.6903 102.876 10.2703 100.346 6.78032L100.336 6.77031ZM93.4861 28.3203C92.4961 30.4103 88.9661 30.7303 86.8661 30.8203C82.9961 31.0003 80.1461 30.8403 78.3061 29.9303C77.0861 29.3303 76.1861 27.9403 76.1061 26.3703C76.0361 25.0303 76.0561 24.3403 76.6661 23.5503C78.0261 21.7803 81.5861 21.4003 85.2361 21.2603C87.7061 21.1603 91.4661 21.4503 94.2461 21.7803C94.2261 24.4603 94.0461 27.1403 93.4861 28.3203Z"
                        fill="white"></path>
                    <path
                        d="M130.226 1.42993C124.936 1.42993 119.636 2.09989 116.286 5.38989C112.936 8.67989 111.646 13.6299 111.646 19.6999C111.646 25.7699 112.796 30.6299 116.156 33.9199C119.506 37.1999 124.936 37.9999 130.226 37.9999C135.516 37.9999 140.786 37.3299 144.136 34.0299C147.486 30.7399 148.806 25.7499 148.806 19.6899C148.806 13.6299 147.636 8.78988 144.286 5.49988C140.936 2.20988 135.526 1.41992 130.226 1.41992V1.42993ZM138.256 28.4599C136.396 30.5899 133.016 30.9699 130.226 30.9699C127.436 30.9699 124.066 30.5999 122.206 28.4699C120.336 26.3399 120.216 23.4099 120.216 19.7099C120.216 16.0099 120.336 13.1599 122.196 11.0299C124.056 8.89991 127.056 8.52991 130.216 8.52991C133.376 8.52991 136.376 8.89991 138.236 11.0299C140.096 13.1599 140.216 16.0199 140.216 19.7099C140.216 23.3999 140.096 26.3299 138.236 28.4599H138.256Z"
                        fill="white"></path>
                    <path
                        d="M230.746 2.08008H223.256C222.936 2.08008 222.676 2.33009 222.676 2.65009V36.8201C222.676 37.1301 222.936 37.3901 223.256 37.3901H230.746C231.066 37.3901 231.326 37.1301 231.326 36.8201V2.65009C231.326 2.34009 231.066 2.08008 230.746 2.08008Z"
                        fill="white"></path>
                    <path
                        d="M207.816 4.67023C204.766 1.83023 199.866 1.49023 195.906 1.49023C190.786 1.49023 187.526 2.58022 185.546 3.60022H184.176C182.246 2.53022 178.836 1.49023 173.476 1.49023C169.506 1.49023 164.646 1.78023 161.656 4.30023C159.176 6.38023 158.606 9.15021 158.606 14.8402V36.8002C158.606 37.1102 158.866 37.3702 159.186 37.3702H166.666C166.986 37.3702 167.246 37.1102 167.246 36.8002V36.7202C167.246 36.7202 167.246 22.8402 167.246 18.7202C167.246 15.4602 167.116 12.0602 167.826 10.7902C168.376 9.80022 169.236 8.7002 173.296 8.7002C178.146 8.7002 179.286 9.04019 180.056 11.1902C180.236 11.7002 180.326 12.4202 180.366 13.3002V36.7902C180.366 37.1002 180.626 37.3602 180.946 37.3602H188.436C188.756 37.3602 189.016 37.1002 189.016 36.7902V13.3002C189.056 12.4202 189.146 11.7002 189.326 11.1902C190.086 9.04019 191.236 8.7002 196.086 8.7002C200.156 8.7002 201.016 9.80022 201.556 10.7902C202.256 12.0602 202.136 15.4502 202.136 18.7202C202.136 22.8302 202.136 36.7202 202.136 36.7202V36.8002C202.136 37.1102 202.396 37.3702 202.716 37.3702H210.196C210.516 37.3702 210.776 37.1102 210.776 36.8002V16.1802C210.776 10.2802 210.586 7.25024 207.816 4.68024V4.67023Z"
                        fill="white"></path>
                    <path
                        d="M56.9059 2.08008H49.4159C49.0959 2.08008 48.8359 2.33009 48.8359 2.65009V36.8201C48.8359 37.1301 49.0959 37.3901 49.4159 37.3901H56.9059C57.2259 37.3901 57.4859 37.1301 57.4859 36.8201V2.65009C57.4859 2.34009 57.2259 2.08008 56.9059 2.08008Z"
                        fill="white"></path>
                    <path
                        d="M25.4259 19.4403L38.7359 2.97034C39.0259 2.61034 38.7659 2.08032 38.3059 2.08032H28.7159C28.4859 2.08032 28.2759 2.1903 28.1359 2.3703L19.3459 14.0203L10.7659 2.3703C10.6259 2.1803 10.4059 2.07031 10.1759 2.07031H0.565918C0.105918 2.07031 -0.144082 2.60033 0.135918 2.96033L13.6059 19.7404L0.115918 36.5003C-0.164082 36.8603 0.0959184 37.3803 0.545918 37.3803H10.1659C10.3959 37.3803 10.6159 37.2703 10.7559 37.0803L19.7359 25.4703L28.2459 37.0903C28.3859 37.2803 28.6059 37.3903 28.8359 37.3903H38.3359C38.7959 37.3903 39.0459 36.8703 38.7659 36.5103L25.4359 19.4503L25.4259 19.4403Z"
                        fill="white"></path>
                    <path
                        d="M130.226 1.42993C124.936 1.42993 119.636 2.09989 116.286 5.38989C112.936 8.67989 111.646 13.6299 111.646 19.6999C111.646 25.7699 112.796 30.6299 116.156 33.9199C119.506 37.1999 124.936 37.9999 130.226 37.9999C135.516 37.9999 140.786 37.3299 144.136 34.0299C147.486 30.7399 148.806 25.7499 148.806 19.6899C148.806 13.6299 147.636 8.78988 144.286 5.49988C140.936 2.20988 135.526 1.41992 130.226 1.41992V1.42993ZM138.256 28.4599C136.396 30.5899 133.016 30.9699 130.226 30.9699C127.436 30.9699 124.066 30.5999 122.206 28.4699C120.336 26.3399 120.216 23.4099 120.216 19.7099C120.216 16.0099 120.336 13.1599 122.196 11.0299C124.056 8.89991 127.056 8.52991 130.216 8.52991C133.376 8.52991 136.376 8.89991 138.236 11.0299C140.096 13.1599 140.216 16.0199 140.216 19.7099C140.216 23.3999 140.096 26.3299 138.236 28.4599H138.256Z"
                        fill="white"></path>
                    <path
                        d="M268.816 36.12C268.486 36.07 268.196 35.69 268.246 35.22L269.056 29.38C269.106 28.9 269.436 28.81 269.956 28.9C274.616 29.52 278.036 30.28 282.636 30.28C288.146 30.28 291.046 29.38 291.236 26.67C291.326 25.53 291.046 24.11 289.236 23.54C287.576 23.02 283.446 22.68 279.976 22.5C275.936 22.26 272.706 21.98 270.616 20.55C268.386 18.93 267.106 15.75 267.056 12.57C267.006 9.47997 268.006 6.30001 271.476 4.11001C273.616 2.78001 276.226 2.10997 280.546 1.87997C286.296 1.54997 293.226 2.34999 296.596 3.39999C297.076 3.53999 297.306 3.88 297.266 4.35C297.266 4.35 296.746 8.39 296.506 9.91C296.416 10.29 296.176 10.38 295.746 10.29C293.366 9.86 284.586 8.25 280.496 8.72C276.316 9.19 275.606 10.48 275.366 11.85C275.226 12.89 275.276 14.94 277.366 15.22C278.366 15.36 279.976 15.46 281.826 15.6C285.296 15.79 289.526 16.03 291.996 16.64C296.226 17.78 298.076 19.59 299.116 22.1C299.976 23.95 299.736 26.8 299.546 28.18C299.216 30.98 297.316 34.02 293.226 35.83C290.376 37.07 285.486 37.25 282.826 37.25C278.736 37.2 273.756 37.01 268.816 36.11V36.12Z"
                        fill="white"></path>
                    <path
                        d="M310.706 33.6502C307.336 30.3302 306.996 25.3902 306.996 19.4502V2.97021C306.996 2.68021 307.236 2.4502 307.516 2.4502H314.836C315.166 2.4502 315.406 2.69021 315.406 2.97021V17.3102L315.356 19.4502C315.266 23.1102 315.216 26.0502 317.016 28.0902C318.776 30.0902 320.866 30.4202 323.996 30.4202C327.126 30.4202 329.216 30.0902 330.926 28.0902C332.726 26.0502 332.546 23.1002 332.546 19.4502V2.97021C332.546 2.68021 332.786 2.4502 333.116 2.4502H340.476C340.766 2.4502 340.946 2.69021 340.946 2.97021V19.4502C340.946 25.3902 340.426 30.4702 337.146 33.7502C333.776 37.0302 329.826 37.3102 323.986 37.3102C318.146 37.3102 313.966 36.8802 310.686 33.6502H310.706Z"
                        fill="white"></path>
                    <path
                        d="M380.536 9.18945C376.786 16.3595 369.796 28.6195 365.286 36.2695C365.146 36.5495 364.576 36.6495 364.246 36.6495H356.026C355.646 36.6495 355.506 36.1295 355.646 35.7895C359.396 28.6695 369.896 11.0895 369.896 11.0895L370.896 9.46948H348.186C347.856 9.46948 347.616 9.17949 347.616 8.84949V3.00946C347.616 2.71946 347.856 2.43945 348.186 2.43945H380.296C380.626 2.43945 380.866 2.71946 380.866 3.00946V7.56946C380.866 8.27946 380.676 8.8495 380.536 9.1795V9.18945Z"
                        fill="white"></path>
                    <path
                        d="M412.006 24.9398C412.776 24.9398 413.336 24.8798 413.686 24.7698C414.026 24.6598 414.256 24.4498 414.376 24.1498C414.496 23.8498 414.576 23.3298 414.636 22.5798C414.746 20.3998 414.806 18.8998 414.806 18.0598H406.976V31.4798C406.976 32.4298 407.036 33.1098 407.146 33.5198C407.256 33.9398 407.506 34.2198 407.876 34.3798C408.246 34.5398 408.876 34.6198 409.766 34.6198H414.196C415.026 34.6198 415.646 34.5398 416.046 34.3798C416.446 34.2198 416.716 33.9498 416.846 33.5598C416.976 33.1698 417.066 32.5798 417.126 31.7798L417.296 28.3398L421.506 29.0298C421.506 29.6898 421.476 30.4998 421.416 31.4598C421.356 32.4198 421.306 33.2598 421.246 33.9798C421.136 35.2698 420.876 36.2598 420.476 36.9498C420.076 37.6398 419.426 38.1298 418.536 38.4098C417.646 38.6998 416.386 38.8398 414.756 38.8398H408.526C406.376 38.8398 404.866 38.3898 403.986 37.5098C403.116 36.6198 402.676 35.0498 402.676 32.7798V16.0098C402.016 16.6698 401.346 17.2998 400.656 17.8998L399.066 13.1698C400.986 11.6498 402.866 9.71977 404.696 7.38977C406.526 5.04977 408.006 2.84979 409.126 0.789795H413.086C414.896 2.56979 417.846 5.84977 421.946 10.6398L419.456 14.6798L418.856 13.8598C418.826 14.9198 418.786 16.4498 418.726 18.4598C418.666 20.4698 418.616 22.1898 418.556 23.6198C418.466 24.9398 418.266 25.9698 417.956 26.7198C417.646 27.4698 417.106 28.0198 416.366 28.3798C415.616 28.7398 414.556 28.9198 413.186 28.9198H409.576L408.806 24.9598H412.026L412.006 24.9398ZM418.796 13.7998C417.616 12.2198 416.326 10.5498 414.906 8.78979C413.486 7.02979 412.346 5.6698 411.486 4.7298C409.626 7.8798 407.386 10.9098 404.776 13.7998H418.796ZM423.266 4.2998H427.476V29.0198H423.266V4.2998ZM431.346 0.559753H435.686V34.0998C435.686 35.4798 435.516 36.5398 435.166 37.2998C434.826 38.0598 434.236 38.5998 433.406 38.9298C432.576 39.2598 431.386 39.4198 429.836 39.4198H424.936L423.986 34.6498H428.586C429.706 34.6498 430.446 34.4898 430.796 34.1798C431.156 33.8698 431.336 33.2098 431.336 32.1998V0.549805L431.346 0.559753Z"
                        fill="white"></path>
                    <path
                        d="M457.456 12.17C457.086 16.1 456.616 19.36 456.056 21.95C455.496 24.54 454.726 26.85 453.756 28.85C455.246 30.17 456.866 31.66 458.616 33.32L455.866 37.1C454.346 35.58 452.856 34.15 451.396 32.8C449.906 34.89 447.786 37.29 445.036 39.98L441.896 36.84C444.676 34.29 446.786 31.98 448.216 29.92C446.096 28.06 444.316 26.57 442.886 25.45C443.916 21.35 444.796 16.92 445.506 12.16H442.536V7.69H446.066C446.326 5.31 446.536 2.95003 446.706 0.590027L451.046 0.890015C450.786 3.67001 450.556 5.93005 450.356 7.68005H457.446V12.15L457.456 12.17ZM450.446 25.97C451.136 24.31 451.666 22.45 452.036 20.4C452.406 18.35 452.766 15.61 453.116 12.17H449.806C449.286 16.01 448.576 19.82 447.656 23.61L450.446 25.98V25.97ZM477.146 19.22C477.056 19.02 476.906 18.72 476.676 18.32L475.816 16.6L458.876 17.59L457.886 13.46C459.406 11.8 460.896 9.74004 462.356 7.29004C463.816 4.84004 465.066 2.41 466.096 0L470.656 1.42004C469.906 3.08004 468.846 5.05 467.476 7.31C466.096 9.58 464.856 11.48 463.736 13.03L473.586 12.4301L470.486 6.88L474.146 4.90002C475.746 7.45002 478.076 11.52 481.116 17.11L477.156 19.22H477.146ZM463.946 39.86H459.516V21.33H478.566V39.86H474.056V37.45H463.946V39.86ZM474.056 33.19V25.62H463.946V33.19H474.056Z"
                        fill="white"></path>
                    <path
                        d="M523.636 35.9001L520.966 39.7701C518.096 37.5901 515.846 35.5301 514.216 33.5801C512.386 35.6701 509.896 37.8701 506.776 40.1601L504.066 36.4601C507.186 34.3101 509.696 32.1501 511.596 29.9701C509.586 26.6401 508.116 22.4701 507.166 17.4601C507.136 20.7601 506.966 23.5701 506.646 25.8901C506.326 28.2101 505.796 30.4101 505.036 32.4901C504.276 34.5701 503.176 36.8501 501.746 39.3501L499.076 36.5601V39.2701H494.906V24.9501H491.896C491.776 28.2501 491.516 31.0601 491.096 33.3801C490.676 35.7001 490.016 37.9801 489.096 40.2201L485.136 37.7301C485.906 36.0701 486.486 34.4101 486.856 32.7601C487.226 31.1101 487.476 29.2101 487.586 27.0401C487.696 24.8801 487.756 21.8901 487.756 18.0701V1.56006H491.966V12.4001H494.716V0.830078H498.886V12.4001H501.206V16.4401H491.956V20.7001H499.046V35.1501C500.566 32.4301 501.576 29.6801 502.076 26.8901C502.576 24.1101 502.826 20.4001 502.826 15.7501V3.80011C505.746 3.63011 508.896 3.30006 512.266 2.81006C515.636 2.32006 518.876 1.75009 522.006 1.09009L522.866 5.69006C518.026 6.75006 512.776 7.58011 507.126 8.18011V12.0501H521.956V16.5601C521.296 19.4301 520.556 21.9601 519.746 24.1701C518.926 26.3801 517.916 28.4001 516.716 30.2301C518.346 32.1201 520.646 34.0101 523.596 35.9101L523.636 35.9001ZM510.906 16.5501C511.766 20.5901 512.856 23.8801 514.176 26.4001C515.756 23.6801 516.896 20.3901 517.616 16.5501H510.906Z"
                        fill="white"></path>
                </svg>