<svg width="353" height="35" viewBox="0 0 353 35" fill="none" xmlns="http://www.w3.org/2000/svg">
<path d="M270.044 14.7814C267.746 14.2085 263.815 13.9793 260.594 13.8074C258.874 13.6737 257.374 13.5878 256.441 13.4541C254.5 13.1867 254.452 11.2768 254.586 10.3028C254.807 9.0136 255.471 7.81991 259.354 7.37109C263.151 6.92227 271.322 8.44062 273.523 8.83215C273.918 8.91809 274.139 8.83216 274.225 8.47883C274.446 7.05596 274.927 3.28394 274.927 3.28394C274.975 2.83512 274.754 2.52955 274.312 2.39585C271.178 1.42181 264.728 0.667405 259.393 0.972986C255.374 1.19262 252.952 1.81334 250.962 3.06431C247.742 5.10788 246.809 8.0873 246.857 10.9712C246.905 13.9506 248.097 16.9205 250.164 18.4389C252.106 19.7758 255.105 20.0336 258.864 20.2628C262.084 20.4442 265.929 20.7498 267.477 21.2368C269.159 21.7716 269.419 23.099 269.332 24.1685C269.159 26.6991 266.458 27.549 261.344 27.549C257.066 27.549 253.884 26.8423 249.559 26.2598C249.078 26.1739 248.761 26.2598 248.722 26.7087L247.973 32.1709C247.924 32.6102 248.194 32.9731 248.501 33.0113C253.096 33.8516 257.73 34.0331 261.527 34.0808C263.997 34.0808 268.544 33.8994 271.197 32.7439C274.994 31.0536 276.763 28.2175 277.071 25.5914C277.244 24.3022 277.465 21.6379 276.677 19.9095C275.696 17.5412 273.975 15.851 270.044 14.7814ZM314.897 1.49821H308.053C307.745 1.49821 307.524 1.71784 307.524 1.98522V17.398C307.524 20.8167 307.697 23.5764 306.025 25.4863C304.438 27.3485 302.449 27.6636 299.574 27.6636C296.662 27.6636 294.72 27.3485 293.086 25.4863C291.403 23.5764 291.452 20.8262 291.538 17.398L291.586 15.4022V1.98522C291.586 1.71784 291.365 1.49821 291.057 1.49821H284.261C283.992 1.49821 283.78 1.71784 283.78 1.98522V17.398C283.78 22.9557 284.088 27.5681 287.222 30.6812C290.269 33.6988 294.105 34.0999 299.584 34.0999C305.015 34.0999 308.678 33.8325 311.812 30.7672C314.859 27.7018 315.339 22.9462 315.339 17.398V1.98522C315.339 1.72739 315.157 1.49821 314.897 1.49821ZM351.667 1.49821H321.828C321.521 1.49821 321.299 1.76559 321.299 2.03297V7.49524C321.299 7.81037 321.521 8.06819 321.828 8.06819H342.832L342.006 9.577C342.006 9.577 332.249 26.0115 328.759 32.677C328.624 32.9922 328.759 33.4792 329.115 33.4792H336.757C337.065 33.4792 337.593 33.3932 337.728 33.1259C341.919 25.9734 348.408 14.5141 351.897 7.81037C352.032 7.49524 352.205 6.97002 352.205 6.30156V2.03297C352.205 1.76559 351.984 1.49821 351.667 1.49821ZM213.53 1.76559H206.628C206.33 1.76559 206.089 1.99477 206.089 2.28125V33.2787C206.089 33.5556 206.33 33.7943 206.628 33.7943H213.53C213.818 33.7943 214.068 33.5651 214.068 33.2787V2.28125C214.068 1.99477 213.828 1.76559 213.53 1.76559ZM192.391 4.11474C189.584 1.54594 185.066 1.23082 181.413 1.23082C176.693 1.23082 173.684 2.22396 171.858 3.14071H170.589C168.811 2.17622 165.658 1.23082 160.726 1.23082C157.073 1.23082 152.584 1.4982 149.825 3.77096C147.537 5.65219 147.009 8.17325 147.009 13.3299V33.25C147.009 33.5269 147.249 33.7657 147.547 33.7657H154.449C154.747 33.7657 154.987 33.5365 154.987 33.25V33.1832C154.987 33.1832 154.987 20.5875 154.987 16.8537C154.987 13.8933 154.872 10.8089 155.516 9.66296C156.025 8.76531 156.814 7.77216 160.563 7.77216C165.033 7.77216 166.09 8.07775 166.792 10.0258C166.955 10.4842 167.042 11.1431 167.08 11.9453C167.08 12.9098 167.08 14.5904 167.08 18.563V33.2596C167.08 33.5365 167.321 33.7752 167.619 33.7752H167.628H174.521H174.53C174.828 33.7752 175.069 33.546 175.069 33.2596V18.563C175.069 14.6 175.069 12.9193 175.069 11.9453C175.107 11.1431 175.193 10.4937 175.357 10.0258C176.059 8.07775 177.116 7.77216 181.586 7.77216C185.335 7.77216 186.123 8.77486 186.633 9.66296C187.286 10.8089 187.162 13.8933 187.162 16.8537C187.162 20.5875 187.162 33.1832 187.162 33.1832V33.25C187.162 33.5269 187.402 33.7657 187.7 33.7657H194.602C194.9 33.7657 195.14 33.5365 195.14 33.25V14.5427C195.131 9.19502 194.948 6.45434 192.391 4.11474ZM53.2639 1.76559H46.3619C46.0639 1.76559 45.8235 1.99477 45.8235 2.28125V33.2787C45.8235 33.5556 46.0639 33.7943 46.3619 33.7943H53.2639C53.5523 33.7943 53.8022 33.5651 53.8022 33.2787V2.28125C53.8022 1.99477 53.5619 1.76559 53.2639 1.76559ZM24.2427 17.5126L36.5087 2.56774C36.7778 2.24306 36.5375 1.75603 36.1146 1.75603H27.2707C27.0592 1.75603 26.8574 1.85154 26.7324 2.02343L18.6287 12.5946L10.7174 2.03297C10.5924 1.86108 10.3905 1.76559 10.179 1.76559H1.30636C0.88339 1.76559 0.652692 2.24306 0.91224 2.56774L13.3321 17.7895L0.902618 32.9922C0.64307 33.3169 0.88339 33.7943 1.30636 33.7943H10.1694C10.3809 33.7943 10.5924 33.6893 10.7174 33.5174L18.994 22.9844L26.8381 33.5174C26.9631 33.6893 27.165 33.7848 27.3765 33.7848H36.1338C36.5567 33.7848 36.7874 33.3073 36.5279 32.9826L24.2427 17.5126ZM93.3015 6.01508C90.11 1.68919 84.3423 0.380915 78.3631 0.696045C72.2974 1.02073 68.0677 2.28125 66.9911 2.68232C66.3182 2.93061 66.4047 3.50358 66.3951 3.83781C66.3662 4.98374 66.2797 7.66713 66.2893 8.87036C66.2893 9.39557 66.9526 9.64386 67.5102 9.45287C69.7211 8.67937 73.8066 7.44748 77.0942 7.18965C80.6413 6.90317 85.5824 7.2756 86.9185 9.25233C87.5914 10.255 87.7068 12.1267 87.8029 13.7024C85.592 13.4732 82.1794 13.0912 78.7861 13.2726C76.2483 13.4063 71.3938 13.731 68.5387 15.2303C66.2124 16.4526 64.8474 17.5508 64.1264 19.6134C63.5401 21.275 63.3862 22.8602 63.5689 24.4836C63.9919 28.1888 65.2992 30.0319 67.068 31.321C69.8557 33.355 73.374 34.4246 80.651 34.2622C90.3311 34.0522 92.8785 30.9772 94.1666 28.7904C96.3488 25.0662 95.9739 19.1933 95.9066 15.5836C95.8585 14.1034 95.6278 9.17593 93.3015 6.01508ZM87.1012 25.7633C86.188 27.654 82.7658 27.9214 80.8336 28.0169C77.2672 28.1793 74.5083 27.9501 72.8069 27.1288C71.6822 26.5845 70.7689 25.3526 70.7016 23.9202C70.6343 22.7075 70.8074 21.9912 71.3361 21.2464C72.5377 19.537 75.9503 19.1264 79.3148 19.0023C81.6603 18.9163 85.3036 19.1837 87.8798 19.4988C87.8318 22.039 87.6299 24.6555 87.1012 25.7633ZM120.862 1.17352C115.988 1.17352 111.095 1.78469 108.009 4.7641C104.923 7.75307 103.731 12.2413 103.731 17.7418C103.731 23.2518 104.798 27.654 107.884 30.643C110.97 33.6224 115.978 34.3482 120.852 34.3482C125.735 34.3482 130.59 33.737 133.676 30.7481C136.761 27.7591 137.982 23.2422 137.982 17.7418C137.982 12.2413 136.905 7.85812 133.81 4.86915C130.734 1.88973 125.735 1.17352 120.862 1.17352ZM128.485 25.9256C126.716 27.9119 123.505 28.2652 120.862 28.2652C118.218 28.2652 115.017 27.9119 113.248 25.9352C111.479 23.9489 111.354 21.2559 111.354 17.7513C111.354 14.2467 111.47 11.6301 113.239 9.64386C115.007 7.65758 117.853 7.30425 120.862 7.30425C123.87 7.30425 126.716 7.64803 128.485 9.64386C130.253 11.6301 130.369 14.2467 130.369 17.7513C130.369 21.2559 130.253 23.9393 128.485 25.9256Z" fill="white"/>
</svg>
