<svg class=" " width="382" height="40" viewBox="0 0 382 40" fill="none"
                    xmlns="http://www.w3.org/2000/svg">
                    <path
                        d="M101.336 6.91972C97.8761 2.14972 91.6161 0.699724 85.1261 1.04972C78.5461 1.39972 73.9561 2.79972 72.7861 3.23972C72.0561 3.51972 72.1461 4.13972 72.1461 4.51972C72.1161 5.77972 72.0261 9.03972 72.0261 10.3597C72.0261 10.9397 72.7461 11.2197 73.3461 10.9997C75.7461 10.1497 80.1761 8.78972 83.7361 8.50972C87.5761 8.19972 92.7961 8.50972 94.2461 10.6897C94.9361 11.7297 94.9661 13.3097 95.0461 14.9397C92.6461 14.7197 89.0961 14.4197 85.5661 14.6097C82.8161 14.7597 77.5561 14.9897 74.4561 16.6397C71.9361 17.9797 70.4561 19.1997 69.6661 21.4697C69.0361 23.2997 68.8561 25.4897 69.0661 27.2897C69.5261 31.3697 70.9461 33.4097 72.8661 34.8297C75.8961 37.0697 79.7061 38.2497 87.5961 38.0797C98.0961 37.8497 100.856 34.4497 102.256 32.0497C104.626 27.9497 104.216 21.4697 104.146 17.4897C104.116 15.8397 103.876 10.4197 101.346 6.92972L101.336 6.91972ZM94.4861 28.4697C93.4961 30.5597 89.9661 30.8797 87.8661 30.9697C83.9961 31.1497 81.1461 30.9897 79.3061 30.0797C78.0861 29.4797 77.1861 28.0897 77.1061 26.5197C77.0361 25.1797 77.0561 24.4897 77.6661 23.6997C79.0261 21.9297 82.5861 21.5497 86.2361 21.4097C88.7061 21.3097 92.4661 21.5997 95.2461 21.9297C95.2261 24.6097 95.0461 27.2897 94.4861 28.4697Z"
                        fill="white"></path>
                    <path
                        d="M131.226 1.57934C125.936 1.57934 120.636 2.24934 117.286 5.53934C113.936 8.82934 112.646 13.7793 112.646 19.8493C112.646 25.9193 113.796 30.7793 117.156 34.0693C120.506 37.3493 125.936 38.1493 131.226 38.1493C136.516 38.1493 141.786 37.4793 145.136 34.1793C148.486 30.8893 149.806 25.8993 149.806 19.8393C149.806 13.7793 148.636 8.93934 145.286 5.64934C141.936 2.35934 136.526 1.56934 131.226 1.56934V1.57934ZM139.256 28.6093C137.396 30.7393 134.016 31.1193 131.226 31.1193C128.436 31.1193 125.066 30.7493 123.206 28.6193C121.336 26.4893 121.216 23.5593 121.216 19.8593C121.216 16.1593 121.336 13.3093 123.196 11.1793C125.056 9.04934 128.056 8.67934 131.216 8.67934C134.376 8.67934 137.376 9.04934 139.236 11.1793C141.096 13.3093 141.216 16.1693 141.216 19.8593C141.216 23.5493 141.096 26.4793 139.236 28.6093H139.256Z"
                        fill="white"></path>
                    <path
                        d="M231.746 2.22949H224.256C223.936 2.22949 223.676 2.47949 223.676 2.79949V36.9695C223.676 37.2795 223.936 37.5395 224.256 37.5395H231.746C232.066 37.5395 232.326 37.2795 232.326 36.9695V2.79949C232.326 2.48949 232.066 2.22949 231.746 2.22949Z"
                        fill="white"></path>
                    <path
                        d="M208.816 4.81965C205.766 1.97965 200.866 1.63965 196.906 1.63965C191.786 1.63965 188.526 2.72965 186.546 3.74965H185.176C183.246 2.67965 179.836 1.63965 174.476 1.63965C170.506 1.63965 165.646 1.92965 162.656 4.44965C160.176 6.52965 159.606 9.29965 159.606 14.9896V36.9496C159.606 37.2596 159.866 37.5196 160.186 37.5196H167.666C167.986 37.5196 168.246 37.2596 168.246 36.9496V36.8696C168.246 36.8696 168.246 22.9896 168.246 18.8696C168.246 15.6096 168.116 12.2096 168.826 10.9396C169.376 9.94965 170.236 8.84965 174.296 8.84965C179.146 8.84965 180.286 9.18965 181.056 11.3396C181.236 11.8496 181.326 12.5696 181.366 13.4496V36.9396C181.366 37.2496 181.626 37.5096 181.946 37.5096H189.436C189.756 37.5096 190.016 37.2496 190.016 36.9396V13.4596C190.056 12.5796 190.146 11.8596 190.326 11.3496C191.086 9.19965 192.236 8.85965 197.086 8.85965C201.156 8.85965 202.016 9.95965 202.556 10.9496C203.256 12.2196 203.136 15.6096 203.136 18.8796C203.136 22.9896 203.136 36.8797 203.136 36.8797V36.9596C203.136 37.2696 203.396 37.5296 203.716 37.5296H211.196C211.516 37.5296 211.776 37.2696 211.776 36.9596V16.3196C211.776 10.4196 211.586 7.38965 208.816 4.81965Z"
                        fill="white"></path>
                    <path
                        d="M57.9059 2.22949H50.4159C50.0959 2.22949 49.8359 2.47949 49.8359 2.79949V36.9695C49.8359 37.2795 50.0959 37.5395 50.4159 37.5395H57.9059C58.2259 37.5395 58.4859 37.2795 58.4859 36.9695V2.79949C58.4859 2.48949 58.2259 2.22949 57.9059 2.22949Z"
                        fill="white"></path>
                    <path
                        d="M26.4259 19.5895L39.7359 3.11949C40.0259 2.75949 39.7659 2.22949 39.3059 2.22949H29.7159C29.4859 2.22949 29.2759 2.33949 29.1359 2.51949L20.3459 14.1695L11.7659 2.52949C11.6259 2.33949 11.4059 2.22949 11.1759 2.22949H1.56592C1.10592 2.22949 0.845918 2.75949 1.13592 3.11949L14.6059 19.8995L1.11592 36.6495C0.835918 37.0095 1.09592 37.5295 1.54592 37.5295H11.1659C11.3959 37.5295 11.6159 37.4195 11.7559 37.2295L20.7359 25.6195L29.2459 37.2395C29.3859 37.4295 29.6059 37.5395 29.8359 37.5395H39.3359C39.7959 37.5395 40.0459 37.0195 39.7659 36.6595L26.4359 19.5995L26.4259 19.5895Z"
                        fill="white"></path>
                    <path
                        d="M131.226 1.57934C125.936 1.57934 120.636 2.24934 117.286 5.53934C113.936 8.82934 112.646 13.7793 112.646 19.8493C112.646 25.9193 113.796 30.7793 117.156 34.0693C120.506 37.3493 125.936 38.1493 131.226 38.1493C136.516 38.1493 141.786 37.4793 145.136 34.1793C148.486 30.8893 149.806 25.8993 149.806 19.8393C149.806 13.7793 148.636 8.93934 145.286 5.64934C141.936 2.35934 136.526 1.56934 131.226 1.56934V1.57934ZM139.256 28.6093C137.396 30.7393 134.016 31.1193 131.226 31.1193C128.436 31.1193 125.066 30.7493 123.206 28.6193C121.336 26.4893 121.216 23.5593 121.216 19.8593C121.216 16.1593 121.336 13.3093 123.196 11.1793C125.056 9.04934 128.056 8.67934 131.216 8.67934C134.376 8.67934 137.376 9.04934 139.236 11.1793C141.096 13.3093 141.216 16.1693 141.216 19.8593C141.216 23.5493 141.096 26.4793 139.236 28.6093H139.256Z"
                        fill="white"></path>
                    <path
                        d="M269.816 36.27C269.486 36.22 269.196 35.84 269.246 35.37L270.056 29.53C270.106 29.05 270.436 28.96 270.956 29.05C275.616 29.67 279.036 30.43 283.636 30.43C289.146 30.43 292.046 29.53 292.236 26.82C292.326 25.68 292.046 24.26 290.236 23.68C288.576 23.16 284.446 22.83 280.976 22.64C276.936 22.4 273.706 22.12 271.616 20.69C269.386 19.07 268.106 15.89 268.056 12.71C268.006 9.61999 269.006 6.43999 272.476 4.24999C274.616 2.91999 277.226 2.25999 281.546 2.01999C287.296 1.68999 294.226 2.49999 297.596 3.53999C298.076 3.67999 298.306 4.01999 298.266 4.48999C298.266 4.48999 297.746 8.52999 297.506 10.05C297.416 10.43 297.176 10.52 296.746 10.43C294.366 9.99999 285.586 8.38999 281.496 8.85999C277.316 9.32999 276.606 10.62 276.366 11.99C276.226 13.03 276.276 15.08 278.366 15.36C279.366 15.5 280.976 15.6 282.826 15.74C286.296 15.93 290.526 16.17 292.996 16.79C297.226 17.93 299.076 19.73 300.116 22.25C300.976 24.1 300.736 26.95 300.546 28.33C300.216 31.13 298.316 34.17 294.226 35.98C291.376 37.22 286.486 37.41 283.826 37.41C279.736 37.36 274.756 37.17 269.816 36.27Z"
                        fill="white"></path>
                    <path
                        d="M311.706 33.7996C308.336 30.4796 307.996 25.5296 307.996 19.5996V3.11961C307.996 2.82961 308.236 2.59961 308.516 2.59961H315.836C316.166 2.59961 316.406 2.83961 316.406 3.11961V17.4696L316.356 19.6096C316.266 23.2696 316.216 26.2096 318.016 28.2596C319.776 30.2596 321.866 30.5896 324.996 30.5896C328.126 30.5896 330.216 30.2596 331.926 28.2596C333.726 26.2196 333.546 23.2696 333.546 19.6096V3.11961C333.546 2.82961 333.786 2.59961 334.116 2.59961H341.476C341.766 2.59961 341.946 2.83961 341.946 3.11961V19.5996C341.946 25.5396 341.426 30.6196 338.146 33.8996C334.776 37.1796 330.826 37.4596 324.986 37.4596C319.146 37.4596 314.966 37.0296 311.686 33.7996H311.706Z"
                        fill="white"></path>
                    <path
                        d="M381.536 9.33984C377.786 16.5098 370.796 28.7698 366.286 36.4198C366.146 36.6998 365.576 36.7998 365.246 36.7998H357.026C356.646 36.7998 356.506 36.2798 356.646 35.9498C360.396 28.8298 370.896 11.2498 370.896 11.2498L371.896 9.62984H349.186C348.856 9.62984 348.616 9.33984 348.616 9.00984V3.15984C348.616 2.86984 348.856 2.58984 349.186 2.58984H381.296C381.626 2.58984 381.866 2.86984 381.866 3.15984V7.71984C381.866 8.42984 381.676 8.99984 381.536 9.32984V9.33984Z"
                        fill="white"></path>
                </svg>